<svg xmlns="http://www.w3.org/2000/svg" id="구성_요소_19_1" width="79" height="79.567" viewBox="0 0 79 79.567">
    <defs>
        <style>
            .cls-1{fill:#fff}
        </style>
    </defs>
    <g id="그룹_100">
        <path id="패스_246" d="M50.4 439.187v-4.612a35.282 35.282 0 1 0-1.271 0v4.63l-.716.717h2.7l-.713-.722a.126.126 0 0 0 0-.018M36 387.8l-.126.463-7.1 25.136-.238.809H44.46l-.265-.809-6.87-24.328h11.806V433.3a34.2 34.2 0 1 1 1.271 0v-44.231H62.21L55.339 413.4l-.235.809h15.9l-.246-.809-7.208-25.6H50.4v-14.7l.689-.689h-2.646l.689.689v14.7H36zm6.746 25.137H30.224l6.259-22.163zm20.304-22.164l6.26 22.163H56.791z" class="cls-1" transform="translate(-10.267 -361.562)"/>
        <path id="패스_247" d="M51.62 440.113h-3.763l1.024-1.025v-4.326a35.521 35.521 0 1 1 1.713 0v4.326zm-2.7-.442h1.631l-.418-.417.016-.11v-4.815h.217a35.082 35.082 0 1 0-1.263 0h.217v4.938zm1.229-6.174V388.82h12.324l-7.1 25.136H70.68l-.159-.523-7.166-25.442h-13.2v-15.01l.377-.376h-1.585l.376.376v15.01H36.138l-.081.3-7.257 25.665h15.326l-.17-.519L37 388.82h12.323v44.68h-.225a34.426 34.426 0 1 1 1.279 0zm.442-44.235v43.785a33.909 33.909 0 1 0-1.713 0v-43.785h-11.29l6.791 24.047.357 1.089H28.212l.321-1.092 7.267-25.757h13.081v-14.385l-1-1H51.6l-1 1v14.385h13.1l7.576 26.851h-16.5l.317-1.091 6.791-24.045zm18.979 23.865h-13.1l6.551-23.2zm-12.519-.442h11.938l-5.968-21.129zm-14.048.442H29.9l6.55-23.2zm-12.518-.442h11.937l-5.968-21.129z" class="cls-1" transform="translate(-10.238 -361.533)"/>
        <path id="패스_248" d="M49.014 361.029a39.283 39.283 0 0 0-6.457 78.032h.053l.783.782v-2.7l-.656.655a38 38 0 1 1 12.38.03c-.014 0-.026.011-.039.015l-.7-.7v2.7l.772-.772c.025 0 .042.025.067.025a.66.66 0 0 0 .1-.008 39.283 39.283 0 0 0-6.305-78.056" class="cls-1" transform="translate(-9.514 -360.808)"/>
        <path id="패스_249" d="M54.128 440.346v-3.763l.99.99a37.793 37.793 0 1 0-12.485-.039l.953-.95v3.761l-1.1-1.1a39.5 39.5 0 1 1 12.837.026.9.9 0 0 1-.135.011zm-5.143-79.125a39.063 39.063 0 0 0-6.421 77.593l.076.009.1.051.407.4v-1.63l-.359.359-.112-.019a38.225 38.225 0 1 1 12.451.03l-.126.037-.1-.084-.324-.323v1.629l.47-.469.186.032h.031a39.062 39.062 0 0 0-6.272-77.617zm6.063 78.026zm.21-.389z" class="cls-1" transform="translate(-9.485 -360.779)"/>
    </g>
</svg>
