<svg xmlns="http://www.w3.org/2000/svg" id="instargram" width="52" height="52" viewBox="0 0 52 52">
    <defs>
        <style>
            .cls-2{fill:#5055a3}
        </style>
    </defs>
    <circle id="타원_7" cx="26" cy="26" r="26" fill="#fff"/>
    <g id="그룹_23" transform="translate(-568.002 -155.001)">
        <path id="패스_176" d="M598.652 170h-9.3a6.35 6.35 0 0 0-6.35 6.351v9.3A6.348 6.348 0 0 0 589.35 192h9.3a6.348 6.348 0 0 0 6.35-6.348v-9.3a6.35 6.35 0 0 0-6.348-6.352zm4.323 15.814a4.218 4.218 0 0 1-4.216 4.218h-9.519a4.219 4.219 0 0 1-4.216-4.218V176.3a4.217 4.217 0 0 1 4.216-4.216h9.519a4.216 4.216 0 0 1 4.216 4.216z" class="cls-2"/>
        <path id="패스_177" d="M592.556 173.889a5.708 5.708 0 1 0 5.711 5.71 5.707 5.707 0 0 0-5.711-5.71zm0 9.409a3.7 3.7 0 1 1 3.7-3.7 3.7 3.7 0 0 1-3.7 3.702z" class="cls-2" transform="translate(1.444 1.459)"/>
        <path id="패스_178" d="M595.653 172.764a1.33 1.33 0 1 0 1.33 1.33 1.33 1.33 0 0 0-1.33-1.33z" class="cls-2" transform="translate(4.248 1.037)"/>
    </g>
</svg>
