<svg xmlns="http://www.w3.org/2000/svg" width="53" height="52" viewBox="0 0 53 52">
    <ellipse cx="26.5" cy="26" fill="#ffe900" rx="26.5" ry="26"/>
    <g>
        <g>
            <path fill="#000100" d="M12.488 0C5.591 0 0 5.173 0 11.541c0 4.722 1.972 6.972 4.678 9.022V26.1a.319.319 0 0 0 .509.255l4.752-3.52.1.044a13.578 13.578 0 0 0 2.454.224c6.9 0 12.488-5.17 12.488-11.541S19.386 0 12.488 0M8.3 14.477a2.607 2.607 0 0 0 2.587-1.864H12.7a4.331 4.331 0 0 1-4.4 3.608 4.593 4.593 0 0 1-4.7-4.681 4.593 4.593 0 0 1 4.7-4.683 4.335 4.335 0 0 1 4.409 3.666h-1.803A2.573 2.573 0 0 0 8.3 8.568a2.828 2.828 0 0 0-2.94 2.974 2.9 2.9 0 0 0 2.94 2.94m11.931 1.565h-1.66v-3.735a1.19 1.19 0 0 0-1.271-1.324c-.862 0-1.415.526-1.415 1.592v3.462h-1.66V6.877h1.66v3.452a2.128 2.128 0 0 1 1.918-.9 2.274 2.274 0 0 1 1.735.706 2.665 2.665 0 0 1 .679 1.955z" transform="translate(14.008 13.291)"/>
        </g>
    </g>
</svg>
