<svg xmlns="http://www.w3.org/2000/svg" width="48.728" height="34.554" viewBox="0 0 48.728 34.554">
    <path fill="#d3161e" d="M530.991 178.622c-.932-3.725-2.674-5.156-5.881-5.671-1.843-.274-10.708-.624-17.749-.624s-15.9.35-17.743.624c-3.2.515-4.952 1.952-5.875 5.671a93.23 93.23 0 0 0-.743 10.693v.579a93.46 93.46 0 0 0 .743 10.7c.923 3.715 2.671 5.147 5.875 5.662 1.842.274 10.717.618 17.762.618l-.031.006c7.044 0 15.916-.35 17.761-.624 3.207-.515 4.949-1.946 5.881-5.662a95 95 0 0 0 .737-10.7v-.579a94.769 94.769 0 0 0-.737-10.693zm-29.471 17.229v-12.493l11.683 6.1z" transform="translate(-483 -172.327)"/>
</svg>
